<svg width="250" height="200" viewBox="0 0 250 200" fill="none" xmlns="http://www.w3.org/2000/svg">
<g clip-path="url(#clip0_5_82)">
<path d="M125 12.5C121.836 12.5 118.711 13.0469 115.742 14.1016L6.17178 53.6719C2.46085 55.0391 -9.09101e-05 58.5547 -9.09101e-05 62.5C-9.09101e-05 66.4453 2.46085 69.9609 6.17178 71.3281L28.789 79.4922C22.3827 89.5703 18.7499 101.484 18.7499 114.023V125C18.7499 136.094 14.5312 147.539 10.039 156.562C7.49991 161.641 4.60928 166.641 1.24991 171.25C-9.08971e-05 172.93 -0.351653 175.117 0.351472 177.109C1.0546 179.102 2.69522 180.586 4.72647 181.094L29.7265 187.344C31.3671 187.773 33.1249 187.461 34.5702 186.562C36.0155 185.664 37.0312 184.18 37.3437 182.5C40.703 165.781 39.0233 150.781 36.5233 140.039C35.2733 134.492 33.5937 128.828 31.2499 123.633V114.023C31.2499 102.227 35.2343 91.0938 42.1483 82.1875C47.1874 76.1328 53.7108 71.25 61.3671 68.2422L122.695 44.1406C125.898 42.8906 129.531 44.4531 130.781 47.6562C132.031 50.8594 130.469 54.4922 127.266 55.7422L65.9374 79.8438C61.0937 81.7578 56.8358 84.6875 53.3593 88.2812L115.703 110.781C118.672 111.836 121.797 112.383 124.961 112.383C128.125 112.383 131.25 111.836 134.219 110.781L243.828 71.3281C247.539 70 250 66.4453 250 62.5C250 58.5547 247.539 55.0391 243.828 53.6719L134.258 14.1016C131.289 13.0469 128.164 12.5 125 12.5ZM49.9999 159.375C49.9999 173.164 83.5937 187.5 125 187.5C166.406 187.5 200 173.164 200 159.375L194.023 102.578L138.476 122.656C134.141 124.219 129.57 125 125 125C120.43 125 115.82 124.219 111.523 122.656L55.9765 102.578L49.9999 159.375Z" fill="#F38020"/>
</g>
<defs>
<clipPath id="clip0_5_82">
<rect width="250" height="200" fill="white"/>
</clipPath>
</defs>
</svg>
