<svg width="250" height="250" viewBox="0 0 250 250" fill="none" xmlns="http://www.w3.org/2000/svg">
<path d="M166.667 125H181.25C182.908 125 184.497 125.659 185.669 126.831C186.842 128.003 187.5 129.592 187.5 131.25V202.083C187.5 203.741 186.842 205.331 185.669 206.503C184.497 207.675 182.908 208.333 181.25 208.333H68.75C67.0924 208.333 65.5027 207.675 64.3306 206.503C63.1585 205.331 62.5 203.741 62.5 202.083V131.25C62.5 129.592 63.1585 128.003 64.3306 126.831C65.5027 125.659 67.0924 125 68.75 125H83.3333M166.667 125V83.3334C166.667 69.448 158.333 41.6667 125 41.6667C91.6667 41.6667 83.3333 69.448 83.3333 83.3334V125M166.667 125H83.3333" stroke="#F38020" stroke-width="10" stroke-linecap="round" stroke-linejoin="round"/>
</svg>
