<svg width="200" height="178" viewBox="0 0 200 178" fill="none" xmlns="http://www.w3.org/2000/svg">
<g clip-path="url(#clip0_5_78)">
<path d="M188.889 0C195.035 0 200 4.96528 200 11.1111V166.667C200 172.812 195.035 177.778 188.889 177.778C182.743 177.778 177.778 172.812 177.778 166.667V11.1111C177.778 4.96528 182.743 0 188.889 0ZM144.444 33.3333C150.59 33.3333 155.556 38.2986 155.556 44.4444V166.667C155.556 172.812 150.59 177.778 144.444 177.778C138.299 177.778 133.333 172.812 133.333 166.667V44.4444C133.333 38.2986 138.299 33.3333 144.444 33.3333ZM111.111 77.7778V166.667C111.111 172.812 106.146 177.778 100 177.778C93.8542 177.778 88.8889 172.812 88.8889 166.667V77.7778C88.8889 71.6319 93.8542 66.6667 100 66.6667C106.146 66.6667 111.111 71.6319 111.111 77.7778ZM55.5556 100C61.7014 100 66.6667 104.965 66.6667 111.111V166.667C66.6667 172.812 61.7014 177.778 55.5556 177.778C49.4097 177.778 44.4444 172.812 44.4444 166.667V111.111C44.4444 104.965 49.4097 100 55.5556 100ZM22.2222 144.444V166.667C22.2222 172.812 17.2569 177.778 11.1111 177.778C4.96528 177.778 0 172.812 0 166.667V144.444C0 138.299 4.96528 133.333 11.1111 133.333C17.2569 133.333 22.2222 138.299 22.2222 144.444Z" fill="#F38020"/>
</g>
<defs>
<clipPath id="clip0_5_78">
<rect width="200" height="177.778" fill="white"/>
</clipPath>
</defs>
</svg>
