<svg width="200" height="267" viewBox="0 0 200 267" fill="none" xmlns="http://www.w3.org/2000/svg">
<g clip-path="url(#clip0_5_80)">
<path d="M33.3333 0C14.9479 0 0 14.9479 0 33.3333V233.333C0 251.719 14.9479 266.667 33.3333 266.667H166.667C185.052 266.667 200 251.719 200 233.333V83.3333H133.333C124.115 83.3333 116.667 75.8854 116.667 66.6667V0H33.3333ZM133.333 0V66.6667H200L133.333 0ZM58.3333 133.333H141.667C146.25 133.333 150 137.083 150 141.667C150 146.25 146.25 150 141.667 150H58.3333C53.75 150 50 146.25 50 141.667C50 137.083 53.75 133.333 58.3333 133.333ZM58.3333 166.667H141.667C146.25 166.667 150 170.417 150 175C150 179.583 146.25 183.333 141.667 183.333H58.3333C53.75 183.333 50 179.583 50 175C50 170.417 53.75 166.667 58.3333 166.667ZM58.3333 200H141.667C146.25 200 150 203.75 150 208.333C150 212.917 146.25 216.667 141.667 216.667H58.3333C53.75 216.667 50 212.917 50 208.333C50 203.75 53.75 200 58.3333 200Z" fill="#F38020"/>
</g>
<defs>
<clipPath id="clip0_5_80">
<rect width="200" height="266.667" fill="white"/>
</clipPath>
</defs>
</svg>
