<svg width="220" height="220" viewBox="0 0 220 220" fill="none" xmlns="http://www.w3.org/2000/svg">
<path d="M64.1667 165V155.833C64.1667 143.678 68.9956 132.02 77.591 123.424C86.1864 114.829 97.8443 110 110 110C122.156 110 133.814 114.829 142.409 123.424C151.005 132.02 155.833 143.678 155.833 155.833V165" stroke="#F38020" stroke-width="8" stroke-linecap="round"/>
<path d="M110 110C117.293 110 124.288 107.103 129.445 101.945C134.603 96.7882 137.5 89.7935 137.5 82.5C137.5 75.2065 134.603 68.2118 129.445 63.0546C124.288 57.8973 117.293 55 110 55C102.707 55 95.7118 57.8973 90.5546 63.0546C85.3973 68.2118 82.5 75.2065 82.5 82.5C82.5 89.7935 85.3973 96.7882 90.5546 101.945C95.7118 107.103 102.707 110 110 110V110Z" stroke="#F38020" stroke-width="8" stroke-linecap="round" stroke-linejoin="round"/>
<path d="M192.5 33V187C192.5 188.459 191.921 189.858 190.889 190.889C189.858 191.921 188.459 192.5 187 192.5H33C31.5413 192.5 30.1424 191.921 29.1109 190.889C28.0795 189.858 27.5 188.459 27.5 187V33C27.5 31.5413 28.0795 30.1424 29.1109 29.1109C30.1424 28.0795 31.5413 27.5 33 27.5H187C188.459 27.5 189.858 28.0795 190.889 29.1109C191.921 30.1424 192.5 31.5413 192.5 33V33Z" stroke="#F38020" stroke-width="8" stroke-linecap="round" stroke-linejoin="round"/>
</svg>
